<?xml version="1.0" standalone="no"?>
<!DOCTYPE svg PUBLIC "-//W3C//DTD SVG 20010904//EN"
 "http://www.w3.org/TR/2001/REC-SVG-20010904/DTD/svg10.dtd">
<svg version="1.0" xmlns="http://www.w3.org/2000/svg"
 width="1201.000000pt" height="1201.000000pt" viewBox="0 0 1201.000000 1201.000000"
 preserveAspectRatio="xMidYMid meet">
<metadata>
Created by potrace 1.14, written by Peter Selinger 2001-2017
</metadata>
<g transform="translate(0.000000,1201.000000) scale(0.100000,-0.100000)"
fill="#000000" stroke="none">
<path d="M250 10791 c-95 -29 -167 -92 -211 -186 l-29 -60 0 -4540 c0 -3552 3
-4548 12 -4575 36 -101 118 -183 213 -214 46 -15 540 -16 5795 -14 l5745 3 54
29 c64 33 122 92 153 155 l23 46 2 4556 3 4556 -35 71 c-38 74 -75 111 -155
153 l-45 24 -5750 2 c-3162 1 -5761 -2 -5775 -6z m11160 -1191 l0 -600 -5400
0 -5400 0 0 600 0 600 5400 0 5400 0 0 -600z m0 -4500 l0 -3300 -5400 0 -5400
0 0 3300 0 3300 5400 0 5400 0 0 -3300z"/>
<path d="M1130 9824 c-161 -51 -211 -272 -89 -393 46 -46 106 -70 174 -67 101
3 189 64 219 154 66 193 -109 369 -304 306z"/>
<path d="M2024 9822 c-94 -38 -148 -117 -151 -217 -3 -139 104 -246 242 -242
134 5 227 98 231 232 6 168 -169 291 -322 227z"/>
<path d="M2920 9822 c-66 -34 -81 -47 -113 -97 -28 -44 -32 -58 -32 -120 0
-108 49 -184 146 -227 47 -21 151 -18 196 6 75 40 133 132 133 211 0 95 -64
194 -147 226 -56 22 -141 22 -183 1z"/>
<path d="M6952 7187 c-71 -26 -91 -52 -224 -287 -11 -19 -53 -91 -93 -160 -39
-69 -83 -145 -97 -170 -14 -25 -72 -126 -128 -225 -57 -99 -111 -195 -121
-212 -11 -18 -28 -49 -39 -68 -11 -19 -30 -52 -41 -72 -50 -89 -75 -132 -116
-200 -24 -40 -43 -74 -43 -77 0 -2 -29 -53 -64 -114 -36 -61 -76 -131 -89
-154 -13 -24 -71 -124 -127 -223 -57 -99 -112 -195 -122 -214 -11 -19 -64
-111 -118 -206 -54 -95 -107 -187 -118 -206 -57 -102 -264 -462 -291 -507 -17
-29 -31 -54 -31 -56 0 -3 -159 -283 -179 -316 -6 -8 -49 -85 -98 -170 -48 -85
-93 -164 -100 -175 -41 -68 -75 -152 -77 -188 -6 -102 45 -174 179 -250 82
-46 103 -54 154 -56 71 -2 134 20 176 63 17 17 55 74 85 126 71 126 73 131
177 310 50 85 107 187 128 225 21 39 43 76 49 84 6 8 16 24 21 36 6 11 75 134
155 273 80 138 154 269 166 289 11 21 157 277 324 568 167 292 312 546 323
565 11 19 45 80 77 135 32 55 66 116 77 135 11 19 102 179 203 355 101 176
197 345 213 375 17 30 38 66 47 80 9 14 24 39 32 55 8 17 45 82 81 145 64 112
87 174 81 215 -9 63 -17 87 -44 123 -31 44 -100 92 -192 135 -62 30 -137 35
-196 14z"/>
<path d="M3625 6943 c-47 -14 -99 -63 -907 -870 -575 -575 -865 -872 -882
-902 -35 -66 -42 -133 -21 -212 l18 -64 861 -862 c647 -649 872 -868 906 -884
58 -28 143 -28 197 -1 53 28 176 150 204 203 25 49 28 109 10 179 -12 41 -77
110 -744 778 l-732 732 716 718 c394 394 724 731 732 747 39 75 42 154 9 228
-19 43 -112 145 -167 184 -52 36 -130 46 -200 26z"/>
<path d="M8278 6945 c-24 -6 -57 -20 -74 -32 -55 -39 -144 -141 -163 -186 -26
-60 -23 -156 6 -212 13 -24 298 -317 732 -751 391 -391 711 -717 711 -724 0
-6 -323 -335 -719 -731 -444 -443 -725 -733 -737 -756 -25 -51 -25 -155 0
-203 28 -53 152 -174 204 -201 61 -30 141 -30 200 0 54 28 1743 1714 1766
1763 38 85 40 169 4 246 -17 35 -223 247 -875 899 -517 517 -867 860 -891 872
-49 25 -107 31 -164 16z"/>
</g>
</svg>
